<?xml version="1.0" standalone="no"?>
<!DOCTYPE svg PUBLIC "-//W3C//DTD SVG 20010904//EN"
 "http://www.w3.org/TR/2001/REC-SVG-20010904/DTD/svg10.dtd">
<svg version="1.0" xmlns="http://www.w3.org/2000/svg"
 width="1000.000000pt" height="1000.000000pt" viewBox="0 0 1000.000000 1000.000000"
 preserveAspectRatio="xMidYMid meet">

<g transform="translate(0.000000,1000.000000) scale(0.100000,-0.100000)"
fill="#000000" stroke="none">
<path d="M4735 7044 c-334 -39 -673 -158 -987 -347 -452 -272 -787 -619 -978
-1012 -73 -150 -105 -245 -139 -410 l-26 -131 -175 -158 c-96 -87 -176 -165
-178 -172 -3 -12 118 -14 756 -14 l760 0 7 83 c13 148 32 226 84 332 127 259
353 462 616 552 171 59 112 56 1240 63 1038 6 1040 6 1118 29 175 49 361 139
539 257 238 159 406 326 558 554 116 175 175 254 237 319 24 25 43 48 43 53 0
7 -3409 9 -3475 2z"/>
</g>
</svg>
